<?xml version="1.0" encoding="UTF-8"?>
<svg xmlns="http://www.w3.org/2000/svg" xmlns:xlink="http://www.w3.org/1999/xlink" width="48pt" height="48pt" viewBox="0 0 48 48" version="1.1">
<g id="surface1751">
<path style=" stroke:none;fill-rule:nonzero;fill:rgb(100%,100%,100%);fill-opacity:1;" d="M 36 4 C 32.6875 4 30 6.6875 30 10 C 30 10.375 30.039062 10.75 30.109375 11.121094 L 15.878906 19.421875 C 14.796875 18.503906 13.421875 18 12 18 C 8.6875 18 6 20.6875 6 24 C 6 27.3125 8.6875 30 12 30 C 13.417969 29.996094 14.789062 29.492188 15.871094 28.574219 L 30.109375 36.878906 C 30.039062 37.25 30 37.625 30 38 C 30 41.3125 32.6875 44 36 44 C 39.3125 44 42 41.3125 42 38 C 42 34.6875 39.3125 32 36 32 C 34.582031 32 33.207031 32.507812 32.125 33.425781 L 17.890625 25.121094 C 17.960938 24.75 18 24.375 18 24 C 18 23.625 17.960938 23.25 17.890625 22.878906 L 32.121094 14.578125 C 33.203125 15.496094 34.578125 16 36 16 C 39.3125 16 42 13.3125 42 10 C 42 6.6875 39.3125 4 36 4 Z M 36 4 "/>
</g>
</svg>
